<?xml version="1.0" encoding="UTF-8" standalone="no"?>
<!-- Created with Inkscape (http://www.inkscape.org/) -->

<svg
   width="238.125mm"
   height="231.15411mm"
   viewBox="0 0 238.125 231.15411"
   version="1.1"
   id="svg1"
   xml:space="preserve"
   inkscape:version="1.3 (1:1.3+202307231459+0e150ed6c4)"
   sodipodi:docname="promethiumjs-logo.svg"
   xmlns:inkscape="http://www.inkscape.org/namespaces/inkscape"
   xmlns:sodipodi="http://sodipodi.sourceforge.net/DTD/sodipodi-0.dtd"
   xmlns="http://www.w3.org/2000/svg"
   xmlns:svg="http://www.w3.org/2000/svg"><sodipodi:namedview
     id="namedview1"
     pagecolor="#353535"
     bordercolor="#eeeeee"
     borderopacity="1"
     inkscape:showpageshadow="0"
     inkscape:pageopacity="0"
     inkscape:pagecheckerboard="false"
     inkscape:deskcolor="#0f0f0f"
     inkscape:document-units="mm"
     showborder="false"
     borderlayer="false"
     inkscape:zoom="0.37976872"
     inkscape:cx="-48.713859"
     inkscape:cy="417.35928"
     inkscape:current-layer="layer1"
     showgrid="false" /><defs
     id="defs1" /><g
     inkscape:label="Layer 1"
     inkscape:groupmode="layer"
     id="layer1"
     transform="translate(-25.805455,-74.478561)"><g
       id="g7"
       transform="matrix(2.1420301,0,0,2.1420301,-57.658421,-105.98882)"><path
         style="fill:#03a597;fill-opacity:1"
         d="m 68.972332,191.9599 c -0.29104,-0.12118 -0.85027,-0.56012 -1.24273,-0.97542 -2.79588,-2.95858 -1.581,-9.08992 2.24144,-11.31229 0.83077,-0.48301 3.87066,-1.23638 11.83359,-2.9327 11.42765,-2.43441 11.93019,-2.60176 13.33211,-4.43978 2.831286,-3.71201 2.485206,-8.83928 -0.7289,-10.79915 -0.45609,-0.27811 -1.3055,-0.50704 -1.88759,-0.50874 -0.58208,-0.002 -10.89924,2.10375 -22.92702,4.67877 -24.359613,5.21512 -23.008373,5.04098 -24.810823,3.19739 -2.16831,-2.2178 -1.98717,-6.51822 0.40677,-9.65684 1.49939,-1.9658 1.06883,-1.84513 24.319303,-6.81559 11.92887,-2.55014 22.19034,-4.82225 22.80328,-5.04912 0.69187,-0.2561 1.61138,-0.95626 2.42511,-1.84662 2.778346,-3.03996 3.124216,-7.74493 0.75409,-10.25801 -0.8851,-0.93847 -2.51764,-1.57856 -3.48375,-1.36591 -11.26018,2.47849 -18.45216,3.8692 -19.49534,3.76981 -4.08223,-0.38893 -5.48294,-5.83118 -2.64878,-10.29134 1.4553,-2.29022 2.47022,-2.74936 9.37226,-4.23992 4.15221,-0.89671 6.50244,-1.53486 7.25667,-1.9704 2.02131,-1.16723 3.52634,-3.7808 3.71609,-6.4532 0.22582,-3.18061 -0.90524,-5.33855 -3.27191,-6.24239 l -1.19376,-0.4559 -14.60903,3.12524 c -15.94815,3.41172 -15.85416,3.40119 -17.49539,1.96017 -1.31182,-1.15179 -1.82923,-2.71571 -1.67581,-5.06527 0.18062,-2.76605 1.57474,-5.1875 3.76656,-6.54212 0.59084,-0.36516 5.4568,-1.525067 14.9966,-3.574757 7.76708,-1.66882 17.27712,-3.75681 21.13342,-4.63998 17.672678,-4.047447 28.310578,-5.840157 34.660408,-5.840997 10.40714,-10e-4 17.59493,3.732444 21.18352,11.004127 4.06406,8.235157 2.92519,21.953387 -2.62835,31.659707 -3.07963,5.38249 -8.76526,11.28649 -14.77321,15.34062 -4.74607,3.20261 -11.2076,5.76892 -18.73092,7.43932 l -3.96874,0.88117 -0.0682,15.47512 -0.0682,15.47511 -4.82656,1.02713 c -2.654602,0.56492 -6.374362,1.35196 -8.266128,1.74897 -1.89177,0.39702 -7.67746,1.62765 -12.85707,2.73475 -8.98274,1.91998 -11.35676,2.25291 -12.54294,1.75904 z m 44.395058,-57.16401 c 5.55169,-1.22344 10.10381,-2.5868 12.75494,-3.82012 6.43399,-2.99315 9.87494,-8.47875 9.96515,-15.88659 0.0414,-3.40159 -0.46619,-5.21426 -1.98202,-7.07776 -2.07874,-2.55551 -6.12366,-3.92236 -10.36438,-3.5023 -1.78236,0.17655 -10.13568,1.73347 -13.68447,2.55056 l -2.32281,0.53482 v 14.1315 c 0,12.55753 0.0455,14.13151 0.40808,14.13151 0.22444,0 2.57593,-0.47773 5.22551,-1.06162 z"
         id="path5" /><path
         style="fill:#28e198;fill-opacity:1"
         d="m 64.669322,188.79569 c -0.29104,-0.12118 -0.85027,-0.56012 -1.24273,-0.97542 -2.79588,-2.95858 -1.581,-9.08992 2.24144,-11.31229 0.83077,-0.48301 3.87066,-1.23638 11.83359,-2.9327 11.42765,-2.43441 11.93019,-2.60176 13.33211,-4.43978 2.83129,-3.71201 2.48521,-8.83928 -0.7289,-10.79915 -0.45609,-0.27811 -1.3055,-0.50704 -1.88759,-0.50874 -0.58208,-0.002 -10.89924,2.10375 -22.92702,4.67877 -24.359608,5.21512 -23.008368,5.04098 -24.810818,3.19739 -2.16831,-2.2178 -1.98717,-6.51822 0.40677,-9.65684 1.49939,-1.9658 1.06883,-1.84513 24.319298,-6.81559 11.92887,-2.55014 22.19034,-4.82225 22.80328,-5.04912 0.69187,-0.2561 1.61138,-0.95626 2.42511,-1.84662 2.77835,-3.03996 3.12422,-7.74493 0.75409,-10.25801 -0.8851,-0.93847 -2.51764,-1.57856 -3.48375,-1.36591 -11.26018,2.47849 -18.45216,3.8692 -19.49534,3.76981 -4.08223,-0.38893 -5.48294,-5.83118 -2.64878,-10.29134 1.4553,-2.29022 2.47022,-2.74936 9.37226,-4.23992 4.15221,-0.89671 6.50244,-1.53486 7.25667,-1.9704 2.02131,-1.16723 3.52634,-3.7808 3.71609,-6.4532 0.22582,-3.18061 -0.90524,-5.33855 -3.27191,-6.24239 l -1.19376,-0.4559 -14.60903,3.12524 c -15.94815,3.41172 -15.85416,3.40119 -17.495388,1.96017 -1.31182,-1.15179 -1.82923,-2.71571 -1.67581,-5.06527 0.18062,-2.76605 1.57474,-5.187497 3.766558,-6.542117 0.59084,-0.36516 5.4568,-1.52507 14.9966,-3.57476 7.76708,-1.66882 17.27712,-3.756815 21.13342,-4.639985 17.672668,-4.04744 28.310578,-5.84015 34.660408,-5.84099 10.40714,-0.001 17.59493,3.73244 21.18352,11.004125 4.06406,8.235157 2.92519,21.953387 -2.62835,31.659707 -3.07963,5.38249 -8.76526,11.28649 -14.77321,15.34062 -4.74607,3.20261 -11.2076,5.76892 -18.73093,7.43932 l -3.96874,0.88117 -0.0682,15.47512 -0.0682,15.47511 -4.826562,1.02713 c -2.654586,0.56492 -6.374346,1.35196 -8.266116,1.74897 -1.89177,0.39702 -7.67746,1.62765 -12.85707,2.73475 -8.98274,1.91998 -11.35676,2.25291 -12.54294,1.75904 z m 44.395048,-57.16401 c 5.5517,-1.22344 10.10382,-2.5868 12.75495,-3.82012 6.43399,-2.99315 9.87494,-8.47875 9.96515,-15.88659 0.0414,-3.40159 -0.46619,-5.21426 -1.98202,-7.07776 -2.07874,-2.55551 -6.12366,-3.92236 -10.36438,-3.5023 -1.78236,0.17655 -10.13569,1.73347 -13.68448,2.55056 l -2.32281,0.53482 v 14.1315 c 0,12.55753 0.0455,14.13151 0.40808,14.13151 0.22444,0 2.57593,-0.47773 5.22551,-1.06162 z"
         id="path7" /></g></g></svg>
